# xmcd
#
# Track frame offsets: 
#        150
#        19506
#        42778
#        69363
#        81639
#        99717
#        123004
#        138003
#        158237
#        181579
#        203389
#
# Disc length: 3015 seconds
#
# Revision: 0
# Processed by: cddbd v1.5.2PL0 Copyright (c) Steve Scherf et al.
# Submitted via: ExactAudioCopy v0.99pb5
#
DISCID=7d0bc50b
DTITLE=The Bridge - National Bohemian
DYEAR=2011
DGENRE=Blues
TTITLE0=Sanctuary
TTITLE1=Chavez
TTITLE2=Big Wheel
TTITLE3=Moonlight Mission
TTITLE4=Geraldine
TTITLE5=Long Way To Climb
TTITLE6=Rosie
TTITLE7=Hey Mama
TTITLE8=Stranger In My Own Home
TTITLE9=Colorado Motel
TTITLE10=Dirt On My Hands
EXTD=
EXTT0=
EXTT1=
EXTT2=
EXTT3=
EXTT4=
EXTT5=
EXTT6=
EXTT7=
EXTT8=
EXTT9=
EXTT10=
PLAYORDER=
